<svg xmlns="http://www.w3.org/2000/svg" width="760" height="430" viewBox="0 0 760 430">
  <rect width="760" height="430" fill="#fbf9f5"/>
  <rect x="30" y="24" width="700" height="382" rx="12" fill="#fff" stroke="#35271f" stroke-width="2"/>
  <rect x="52" y="44" width="656" height="44" rx="7" fill="#f3ede4" stroke="#785b43"/>
  <text x="380" y="71" fill="#35271f" font-family="Arial" font-size="12" text-anchor="middle">Header / Navigation</text>
  <text x="65" y="118" fill="#35271f" font-family="Arial" font-size="20" font-weight="700">Account / Wunschliste</text>
  <rect x="58" y="145" width="405" height="150" rx="10" fill="#fffaf4" stroke="#bd9b77" stroke-width="2"/>
  <text x="260" y="172" fill="#35271f" font-family="Arial" font-size="13" text-anchor="middle">Eigene Wunschliste</text>
  <rect x="82" y="195" width="355" height="28" rx="6" fill="#fff" stroke="#ded5ca"/>
  <rect x="82" y="235" width="355" height="28" rx="6" fill="#fff" stroke="#ded5ca"/>
  <text x="260" y="214" fill="#746d66" font-family="Arial" font-size="10" text-anchor="middle">Produkt speichern / entfernen</text>
  <text x="260" y="254" fill="#746d66" font-family="Arial" font-size="10" text-anchor="middle">Produkt speichern / entfernen</text>
  <rect x="490" y="145" width="210" height="150" rx="10" fill="#f3ede4" stroke="#785b43" stroke-width="2"/>
  <text x="595" y="172" fill="#35271f" font-family="Arial" font-size="13" font-weight="700" text-anchor="middle">Teilen</text>
  <rect x="520" y="195" width="150" height="24" rx="6" fill="#fff" stroke="#ded5ca"/>
  <rect x="520" y="232" width="150" height="24" rx="12" fill="#35271f"/>
  <text x="595" y="211" fill="#746d66" font-family="Arial" font-size="9" text-anchor="middle">User-ID / Recht</text>
  <text x="595" y="248" fill="#fff" font-family="Arial" font-size="9" text-anchor="middle">Berechtigung setzen</text>
  <rect x="58" y="318" width="642" height="50" rx="10" fill="#eadfce" stroke="#bd9b77"/>
  <text x="380" y="348" fill="#35271f" font-family="Arial" font-size="13" text-anchor="middle">Mit mir geteilte Wunschlisten</text>
</svg>
