<svg xmlns="http://www.w3.org/2000/svg" width="760" height="430" viewBox="0 0 760 430">
  <rect width="760" height="430" fill="#fbf9f5"/>
  <rect x="30" y="24" width="700" height="382" rx="12" fill="#fff" stroke="#35271f" stroke-width="2"/>
  <rect x="52" y="44" width="656" height="44" rx="7" fill="#f3ede4" stroke="#785b43"/>
  <text x="380" y="71" fill="#35271f" font-family="Arial" font-size="12" text-anchor="middle">Header / Navigation</text>
  <text x="65" y="118" fill="#35271f" font-family="Arial" font-size="20" font-weight="700">Admin-Bereich</text>
  <g fill="#fffaf4" stroke="#bd9b77" stroke-width="1.5">
    <rect x="58" y="145" width="145" height="62" rx="8"/>
    <rect x="222" y="145" width="145" height="62" rx="8"/>
    <rect x="386" y="145" width="145" height="62" rx="8"/>
    <rect x="550" y="145" width="145" height="62" rx="8"/>
  </g>
  <g fill="#35271f" font-family="Arial" font-size="11" text-anchor="middle">
    <text x="131" y="180">Produkte</text>
    <text x="295" y="180">User</text>
    <text x="459" y="180">Bestellungen</text>
    <text x="623" y="180">Wunschlisten</text>
  </g>
  <rect x="58" y="235" width="420" height="120" rx="10" fill="#fff" stroke="#ded5ca" stroke-width="2"/>
  <text x="268" y="260" fill="#35271f" font-family="Arial" font-size="13" text-anchor="middle">Tabelle / Verwaltungsdaten</text>
  <line x1="82" y1="285" x2="452" y2="285" stroke="#ded5ca"/>
  <line x1="82" y1="312" x2="452" y2="312" stroke="#ded5ca"/>
  <line x1="82" y1="339" x2="452" y2="339" stroke="#ded5ca"/>
  <rect x="505" y="235" width="190" height="120" rx="10" fill="#f3ede4" stroke="#785b43" stroke-width="2"/>
  <text x="600" y="262" fill="#35271f" font-family="Arial" font-size="13" font-weight="700" text-anchor="middle">Formular</text>
  <rect x="532" y="285" width="136" height="20" rx="5" fill="#fff" stroke="#ded5ca"/>
  <rect x="532" y="315" width="136" height="22" rx="11" fill="#35271f"/>
  <text x="600" y="330" fill="#fff" font-family="Arial" font-size="9" text-anchor="middle">Speichern</text>
</svg>
