<svg xmlns="http://www.w3.org/2000/svg" width="760" height="430" viewBox="0 0 760 430">
  <rect width="760" height="430" fill="#fbf9f5"/>
  <rect x="30" y="24" width="700" height="382" rx="12" fill="#fff" stroke="#35271f" stroke-width="2"/>
  <rect x="52" y="44" width="656" height="18" rx="4" fill="#35271f" opacity=".9"/>
  <text x="380" y="57" fill="#f3ede4" font-family="Arial" font-size="10" text-anchor="middle">Topbar</text>
  <rect x="52" y="72" width="656" height="42" rx="6" fill="#f3ede4" stroke="#785b43" stroke-width="1.5"/>
  <text x="78" y="98" fill="#35271f" font-family="Arial" font-size="13" font-weight="700">Logo</text>
  <text x="380" y="98" fill="#35271f" font-family="Arial" font-size="12" text-anchor="middle">Kategorien / Suche / Login / Warenkorb</text>
  <rect x="52" y="130" width="656" height="105" rx="10" fill="#eadfce" stroke="#785b43" stroke-width="2"/>
  <text x="380" y="170" fill="#35271f" font-family="Arial" font-size="22" font-weight="700" text-anchor="middle">Hero / Slideshow</text>
  <text x="380" y="198" fill="#785b43" font-family="Arial" font-size="12" text-anchor="middle">große Aussage + Call-to-Action</text>
  <rect x="305" y="210" width="150" height="18" rx="9" fill="#35271f"/>
  <text x="380" y="223" fill="#fff" font-family="Arial" font-size="10" text-anchor="middle">Jetzt einkaufen</text>
  <rect x="52" y="252" width="205" height="58" rx="8" fill="#fffaf4" stroke="#bd9b77"/>
  <rect x="277" y="252" width="205" height="58" rx="8" fill="#fffaf4" stroke="#bd9b77"/>
  <rect x="503" y="252" width="205" height="58" rx="8" fill="#fffaf4" stroke="#bd9b77"/>
  <text x="155" y="285" fill="#35271f" font-family="Arial" font-size="13" text-anchor="middle">Kategorien</text>
  <text x="380" y="285" fill="#35271f" font-family="Arial" font-size="13" text-anchor="middle">Produkte</text>
  <text x="606" y="285" fill="#35271f" font-family="Arial" font-size="13" text-anchor="middle">Kollektionen</text>
  <rect x="52" y="328" width="656" height="42" rx="8" fill="#f3ede4" stroke="#ded5ca"/>
  <text x="380" y="354" fill="#35271f" font-family="Arial" font-size="13" text-anchor="middle">Trust-Elemente / Newsletter / Footer</text>
  <path d="M45 122 C 80 118, 92 121, 120 116" fill="none" stroke="#bd9b77" stroke-width="2" stroke-linecap="round"/>
</svg>
