<svg xmlns="http://www.w3.org/2000/svg" width="1160" height="970" viewBox="0 0 1160 970" font-family="Helvetica, Arial, sans-serif"><defs>
  <marker id="arrow" viewBox="0 0 10 10" refX="8" refY="5" markerWidth="7" markerHeight="7" orient="auto-start-reverse"><path d="M2 1 L8 5 L2 9" fill="none" stroke="#35271f" stroke-width="1.6" stroke-linecap="round" stroke-linejoin="round"/></marker>
  <marker id="arrowmuted" viewBox="0 0 10 10" refX="8" refY="5" markerWidth="7" markerHeight="7" orient="auto-start-reverse"><path d="M2 1 L8 5 L2 9" fill="none" stroke="#785b43" stroke-width="1.6" stroke-linecap="round" stroke-linejoin="round"/></marker>
</defs><rect x="0" y="0" width="1160" height="970" rx="0" fill="#fbf9f5" stroke="none" stroke-width="1"/><text x="580" y="46" font-size="26" font-weight="bold" fill="#35271f" text-anchor="middle">Gentleman Shop — Architektur (Produktion)</text><text x="580" y="72" font-size="13.5" font-weight="normal" fill="#746d66" text-anchor="middle">Öffentlich über HTTPS (Caddy) · echter Mailversand über Strato · Datenbank nur intern</text><rect x="120" y="92" width="300" height="70" rx="8" fill="#f3ede4" stroke="#ded5ca" stroke-width="1"/><text x="270" y="124" font-size="16" font-weight="bold" fill="#22201e" text-anchor="middle">Endanwender</text><text x="270" y="146" font-size="11.5" font-weight="normal" fill="#746d66" text-anchor="middle">Browser · Shop, Warenkorb, Wunschliste</text><rect x="500" y="92" width="300" height="70" rx="8" fill="#f3ede4" stroke="#ded5ca" stroke-width="1"/><text x="650" y="124" font-size="16" font-weight="bold" fill="#22201e" text-anchor="middle">Administrator</text><text x="650" y="146" font-size="11.5" font-weight="normal" fill="#746d66" text-anchor="middle">Browser · Produkt- &amp; User-Verwaltung</text><rect x="880" y="92" width="230" height="70" rx="8" fill="#ffffff" stroke="#ded5ca" stroke-width="1"/><rect x="880" y="92" width="230" height="6" rx="3" fill="#785b43" stroke="none" stroke-width="1"/><text x="898" y="124" font-size="15" font-weight="bold" fill="#35271f" text-anchor="start">Strato SMTP</text><text x="898" y="145" font-size="11.5" font-weight="normal" fill="#746d66" text-anchor="start">extern · smtp.strato.de</text><text x="898" y="166" font-size="11.5" font-weight="normal" fill="#4b4641" text-anchor="start">Port 587 · echter Versand</text><rect x="60" y="188" width="1040" height="636" rx="14" fill="none" stroke="#bd9b77" stroke-width="1.5" stroke-dasharray="8 6"/><text x="80" y="212" font-size="13" font-weight="bold" fill="#785b43" text-anchor="start">Docker-Host · Compose · Netzwerk webshop-network (bridge)</text><text x="580" y="180" font-size="12" font-weight="normal" fill="#746d66" text-anchor="middle">HTTPS :443 · HTTP :80 → 443</text><line x1="270" y1="162" x2="545" y2="226" stroke="#35271f" stroke-width="1.6" marker-end="url(#arrow)"/><line x1="650" y1="162" x2="615" y2="226" stroke="#35271f" stroke-width="1.6" marker-end="url(#arrow)"/><rect x="380" y="228" width="400" height="62" rx="8" fill="#35271f" stroke="none" stroke-width="1"/><text x="580" y="255" font-size="15" font-weight="bold" fill="#ffffff" text-anchor="middle">Caddy · Reverse Proxy + TLS</text><text x="580" y="277" font-size="11.5" font-weight="normal" fill="#e0d5c9" text-anchor="middle">:80 / :443 · Let's-Encrypt-Zertifikat</text><line x1="580" y1="290" x2="580" y2="332" stroke="#35271f" stroke-width="1.6" marker-end="url(#arrow)"/><text x="596" y="318" font-size="11.5" font-weight="normal" fill="#785b43" text-anchor="start">reverse_proxy → :3000</text><text x="1010" y="324" font-size="10.5" font-weight="normal" fill="#746d66" text-anchor="end">Port 3000 nur intern (expose)</text><rect x="140" y="332" width="880" height="250" rx="8" fill="#ffffff" stroke="#ded5ca" stroke-width="1"/><rect x="140" y="332" width="880" height="40" rx="8" fill="#35271f" stroke="none" stroke-width="1"/><rect x="140" y="354" width="880" height="18" rx="0" fill="#35271f" stroke="none" stroke-width="1"/><text x="580" y="358" font-size="15" font-weight="bold" fill="#ffffff" text-anchor="middle">webshop-backend · Node.js + Express · Port 3000</text><text x="160" y="394" font-size="11.5" font-weight="normal" fill="#746d66" text-anchor="start">Auslieferung: statisches Frontend (express.static) · REST-API /api · CORS + JSON · Fehler-/404-Handler</text><rect x="160" y="412" width="200" height="64" rx="6" fill="#f3ede4" stroke="none" stroke-width="1"/><text x="178" y="437" font-size="12.5" font-weight="bold" fill="#35271f" text-anchor="start">Inventar</text><text x="178" y="458" font-size="11" font-weight="normal" fill="#746d66" text-anchor="start">products · orders</text><rect x="373" y="412" width="200" height="64" rx="6" fill="#f3ede4" stroke="none" stroke-width="1"/><text x="391" y="437" font-size="12.5" font-weight="bold" fill="#35271f" text-anchor="start">Wunschliste</text><text x="391" y="458" font-size="11" font-weight="normal" fill="#746d66" text-anchor="start">wishlists</text><rect x="586" y="412" width="200" height="64" rx="6" fill="#f3ede4" stroke="none" stroke-width="1"/><text x="604" y="437" font-size="12.5" font-weight="bold" fill="#35271f" text-anchor="start">User-Verwaltung</text><text x="604" y="458" font-size="11" font-weight="normal" fill="#746d66" text-anchor="start">users</text><rect x="799" y="412" width="200" height="64" rx="6" fill="#f3ede4" stroke="none" stroke-width="1"/><text x="817" y="437" font-size="12.5" font-weight="bold" fill="#35271f" text-anchor="start">Authentifizierung</text><text x="817" y="458" font-size="11" font-weight="normal" fill="#746d66" text-anchor="start">Login · Session · Verify</text><line x1="260" y1="476" x2="430" y2="520" stroke="#785b43" stroke-width="1.6" marker-end="url(#arrowmuted)"/><line x1="473" y1="476" x2="580" y2="520" stroke="#785b43" stroke-width="1.6" marker-end="url(#arrowmuted)"/><line x1="686" y1="476" x2="730" y2="520" stroke="#785b43" stroke-width="1.6" marker-end="url(#arrowmuted)"/><line x1="899" y1="476" x2="866" y2="545" stroke="#746d66" stroke-width="1.6" stroke-dasharray="4 4" marker-end="url(#arrowmuted)"/><text x="899" y="502" font-size="10.5" font-weight="normal" fill="#746d66" text-anchor="middle">liefert Identität</text><text x="370" y="514" font-size="10.5" font-weight="normal" fill="#785b43" text-anchor="middle">prüft Recht</text><rect x="300" y="520" width="560" height="50" rx="8" fill="#bd9b77" stroke="#785b43" stroke-width="1.5"/><text x="580" y="541" font-size="13.5" font-weight="bold" fill="#35271f" text-anchor="middle">Autorisierungsservice · checkAuto → authorization.service</text><text x="580" y="559" font-size="11.5" font-weight="normal" fill="#35271f" text-anchor="middle">entscheidet: darf (userId, resourceType, resourceId, action)?</text><polyline points="1020,452 1080,452 1080,150" fill="none" stroke="#785b43" stroke-width="1.6" marker-end="url(#arrowmuted)"/><text x="1072" y="320" font-size="10.5" font-weight="normal" fill="#785b43" text-anchor="end">SMTP :587</text><line x1="300" y1="582" x2="300" y2="640" stroke="#785b43" stroke-width="1.6" marker-end="url(#arrowmuted)"/><text x="312" y="617" font-size="11.5" font-weight="normal" fill="#785b43" text-anchor="start">SQL :5432 (pg Pool)</text><rect x="180" y="640" width="300" height="150" rx="8" fill="#ffffff" stroke="#ded5ca" stroke-width="1"/><rect x="180" y="640" width="300" height="6" rx="3" fill="#365d42" stroke="none" stroke-width="1"/><text x="198" y="672" font-size="15" font-weight="bold" fill="#35271f" text-anchor="start">PostgreSQL 16</text><text x="198" y="693" font-size="11.5" font-weight="normal" fill="#746d66" text-anchor="start">Container: webshop-db</text><text x="198" y="714" font-size="11.5" font-weight="normal" fill="#4b4641" text-anchor="start">Port 5432 (nur intern)</text><text x="198" y="735" font-size="11.5" font-weight="normal" fill="#4b4641" text-anchor="start">Volume postgres_data · init.sql</text><text x="198" y="756" font-size="11.5" font-weight="normal" fill="#4b4641" text-anchor="start">6 Tabellen (users, products, …)</text><rect x="560" y="640" width="300" height="150" rx="8" fill="#ffffff" stroke="#ded5ca" stroke-width="1"/><rect x="560" y="640" width="300" height="6" rx="3" fill="#bd9b77" stroke="none" stroke-width="1"/><text x="578" y="672" font-size="15" font-weight="bold" fill="#35271f" text-anchor="start">pgAdmin</text><text x="578" y="693" font-size="11.5" font-weight="normal" fill="#746d66" text-anchor="start">Container: webshop-dbadmin</text><text x="578" y="714" font-size="11.5" font-weight="normal" fill="#4b4641" text-anchor="start">Port 5050</text><text x="578" y="735" font-size="11.5" font-weight="normal" fill="#4b4641" text-anchor="start">Datenbank-Administration</text><text x="578" y="756" font-size="11.5" font-weight="normal" fill="#4b4641" text-anchor="start">Verwaltungs-Werkzeug</text><line x1="560" y1="715" x2="480" y2="715" stroke="#785b43" stroke-width="1.6" marker-end="url(#arrowmuted)"/><text x="520" y="706" font-size="10.5" font-weight="normal" fill="#785b43" text-anchor="middle">:5432</text><rect x="140" y="850" width="880" height="90" rx="8" fill="#f3ede4" stroke="#ded5ca" stroke-width="1"/><text x="160" y="878" font-size="13" font-weight="bold" fill="#35271f" text-anchor="start">Ports im Überblick</text><text x="160" y="902" font-size="11.5" font-weight="normal" fill="#4b4641" text-anchor="start">80 / 443 Caddy · 3000 Backend (intern) · 5432 PostgreSQL (intern) · 587 Strato SMTP (extern) · 5050 pgAdmin</text><text x="160" y="924" font-size="10.5" font-weight="normal" fill="#746d66" text-anchor="start">Datenfluss: Browser → Caddy :443 → Backend :3000 → PostgreSQL :5432  /  Mailversand → Strato :587</text></svg>