<svg xmlns="http://www.w3.org/2000/svg" width="1160" height="940" viewBox="0 0 1160 940" font-family="Helvetica, Arial, sans-serif"><defs>
  <marker id="arrow" viewBox="0 0 10 10" refX="8" refY="5" markerWidth="7" markerHeight="7" orient="auto-start-reverse"><path d="M2 1 L8 5 L2 9" fill="none" stroke="#35271f" stroke-width="1.6" stroke-linecap="round" stroke-linejoin="round"/></marker>
  <marker id="arrowmuted" viewBox="0 0 10 10" refX="8" refY="5" markerWidth="7" markerHeight="7" orient="auto-start-reverse"><path d="M2 1 L8 5 L2 9" fill="none" stroke="#785b43" stroke-width="1.6" stroke-linecap="round" stroke-linejoin="round"/></marker>
</defs><rect x="0" y="0" width="1160" height="940" rx="0" fill="#fbf9f5" stroke="none" stroke-width="1"/><text x="580" y="46" font-size="26" font-weight="bold" fill="#35271f" text-anchor="middle">Gentleman Shop — Architektur (Entwicklung / lokal)</text><text x="580" y="72" font-size="13.5" font-weight="normal" fill="#746d66" text-anchor="middle">Direkter Zugriff auf :3000 · Maildev fängt E-Mails ab · alle Ports lokal veröffentlicht</text><rect x="120" y="92" width="300" height="70" rx="8" fill="#f3ede4" stroke="#ded5ca" stroke-width="1"/><text x="270" y="124" font-size="16" font-weight="bold" fill="#22201e" text-anchor="middle">Endanwender</text><text x="270" y="146" font-size="11.5" font-weight="normal" fill="#746d66" text-anchor="middle">Browser · localhost:3000</text><rect x="500" y="92" width="300" height="70" rx="8" fill="#f3ede4" stroke="#ded5ca" stroke-width="1"/><text x="650" y="124" font-size="16" font-weight="bold" fill="#22201e" text-anchor="middle">Administrator</text><text x="650" y="146" font-size="11.5" font-weight="normal" fill="#746d66" text-anchor="middle">Browser · localhost:3000/pages/admin</text><rect x="60" y="178" width="1040" height="632" rx="14" fill="none" stroke="#bd9b77" stroke-width="1.5" stroke-dasharray="8 6"/><text x="80" y="202" font-size="13" font-weight="bold" fill="#785b43" text-anchor="start">Docker-Host (lokal) · Compose · Netzwerk webshop-network</text><text x="580" y="192" font-size="12" font-weight="normal" fill="#746d66" text-anchor="middle">HTTP :3000 (direkt, ohne Reverse Proxy)</text><line x1="270" y1="162" x2="400" y2="220" stroke="#35271f" stroke-width="1.6" marker-end="url(#arrow)"/><line x1="650" y1="162" x2="760" y2="220" stroke="#35271f" stroke-width="1.6" marker-end="url(#arrow)"/><rect x="140" y="220" width="880" height="250" rx="8" fill="#ffffff" stroke="#ded5ca" stroke-width="1"/><rect x="140" y="220" width="880" height="40" rx="8" fill="#35271f" stroke="none" stroke-width="1"/><rect x="140" y="242" width="880" height="18" rx="0" fill="#35271f" stroke="none" stroke-width="1"/><text x="580" y="246" font-size="15" font-weight="bold" fill="#ffffff" text-anchor="middle">webshop-backend · Node.js + Express · Port 3000</text><text x="160" y="282" font-size="11.5" font-weight="normal" fill="#746d66" text-anchor="start">Auslieferung: statisches Frontend (express.static) · REST-API /api · CORS + JSON · Fehler-/404-Handler</text><rect x="160" y="300" width="200" height="64" rx="6" fill="#f3ede4" stroke="none" stroke-width="1"/><text x="178" y="325" font-size="12.5" font-weight="bold" fill="#35271f" text-anchor="start">Inventar</text><text x="178" y="346" font-size="11" font-weight="normal" fill="#746d66" text-anchor="start">products · orders</text><rect x="373" y="300" width="200" height="64" rx="6" fill="#f3ede4" stroke="none" stroke-width="1"/><text x="391" y="325" font-size="12.5" font-weight="bold" fill="#35271f" text-anchor="start">Wunschliste</text><text x="391" y="346" font-size="11" font-weight="normal" fill="#746d66" text-anchor="start">wishlists</text><rect x="586" y="300" width="200" height="64" rx="6" fill="#f3ede4" stroke="none" stroke-width="1"/><text x="604" y="325" font-size="12.5" font-weight="bold" fill="#35271f" text-anchor="start">User-Verwaltung</text><text x="604" y="346" font-size="11" font-weight="normal" fill="#746d66" text-anchor="start">users</text><rect x="799" y="300" width="200" height="64" rx="6" fill="#f3ede4" stroke="none" stroke-width="1"/><text x="817" y="325" font-size="12.5" font-weight="bold" fill="#35271f" text-anchor="start">Authentifizierung</text><text x="817" y="346" font-size="11" font-weight="normal" fill="#746d66" text-anchor="start">Login · Session · Verify</text><line x1="260" y1="364" x2="430" y2="408" stroke="#785b43" stroke-width="1.6" marker-end="url(#arrowmuted)"/><line x1="473" y1="364" x2="580" y2="408" stroke="#785b43" stroke-width="1.6" marker-end="url(#arrowmuted)"/><line x1="686" y1="364" x2="730" y2="408" stroke="#785b43" stroke-width="1.6" marker-end="url(#arrowmuted)"/><line x1="899" y1="364" x2="866" y2="433" stroke="#746d66" stroke-width="1.6" stroke-dasharray="4 4" marker-end="url(#arrowmuted)"/><text x="899" y="390" font-size="10.5" font-weight="normal" fill="#746d66" text-anchor="middle">liefert Identität</text><text x="370" y="402" font-size="10.5" font-weight="normal" fill="#785b43" text-anchor="middle">prüft Recht</text><rect x="300" y="408" width="560" height="50" rx="8" fill="#bd9b77" stroke="#785b43" stroke-width="1.5"/><text x="580" y="429" font-size="13.5" font-weight="bold" fill="#35271f" text-anchor="middle">Autorisierungsservice · checkAuto → authorization.service</text><text x="580" y="447" font-size="11.5" font-weight="normal" fill="#35271f" text-anchor="middle">entscheidet: darf (userId, resourceType, resourceId, action)?</text><line x1="300" y1="470" x2="300" y2="552" stroke="#785b43" stroke-width="1.6" marker-end="url(#arrowmuted)"/><text x="312" y="505" font-size="11.5" font-weight="normal" fill="#785b43" text-anchor="start">SQL :5432</text><line x1="870" y1="470" x2="870" y2="552" stroke="#785b43" stroke-width="1.6" marker-end="url(#arrowmuted)"/><text x="752" y="505" font-size="11.5" font-weight="normal" fill="#785b43" text-anchor="start">SMTP :1025</text><rect x="140" y="552" width="280" height="150" rx="8" fill="#ffffff" stroke="#ded5ca" stroke-width="1"/><rect x="140" y="552" width="280" height="6" rx="3" fill="#365d42" stroke="none" stroke-width="1"/><text x="158" y="584" font-size="15" font-weight="bold" fill="#35271f" text-anchor="start">PostgreSQL 16</text><text x="158" y="605" font-size="11.5" font-weight="normal" fill="#746d66" text-anchor="start">Container: webshop-db</text><text x="158" y="626" font-size="11.5" font-weight="normal" fill="#4b4641" text-anchor="start">Port 5432 (intern) · 5433 (lokal)</text><text x="158" y="647" font-size="11.5" font-weight="normal" fill="#4b4641" text-anchor="start">Schema/Seed via init.sql</text><text x="158" y="668" font-size="11.5" font-weight="normal" fill="#4b4641" text-anchor="start">Volume postgres_data</text><rect x="435" y="552" width="280" height="150" rx="8" fill="#ffffff" stroke="#ded5ca" stroke-width="1"/><rect x="435" y="552" width="280" height="6" rx="3" fill="#bd9b77" stroke="none" stroke-width="1"/><text x="453" y="584" font-size="15" font-weight="bold" fill="#35271f" text-anchor="start">pgAdmin</text><text x="453" y="605" font-size="11.5" font-weight="normal" fill="#746d66" text-anchor="start">Container: webshop-dbadmin</text><text x="453" y="626" font-size="11.5" font-weight="normal" fill="#4b4641" text-anchor="start">Port 5050 → localhost:5050</text><text x="453" y="647" font-size="11.5" font-weight="normal" fill="#4b4641" text-anchor="start">Datenbank-Administration</text><text x="453" y="668" font-size="11.5" font-weight="normal" fill="#4b4641" text-anchor="start"></text><rect x="730" y="552" width="280" height="150" rx="8" fill="#ffffff" stroke="#ded5ca" stroke-width="1"/><rect x="730" y="552" width="280" height="6" rx="3" fill="#785b43" stroke="none" stroke-width="1"/><text x="748" y="584" font-size="15" font-weight="bold" fill="#35271f" text-anchor="start">Maildev</text><text x="748" y="605" font-size="11.5" font-weight="normal" fill="#746d66" text-anchor="start">Container: webshop-maildev</text><text x="748" y="626" font-size="11.5" font-weight="normal" fill="#4b4641" text-anchor="start">SMTP :1025 · Web-UI :1080</text><text x="748" y="647" font-size="11.5" font-weight="normal" fill="#4b4641" text-anchor="start">fängt alle Test-Mails ab</text><text x="748" y="668" font-size="11.5" font-weight="normal" fill="#4b4641" text-anchor="start">einsehbar auf localhost:1080</text><line x1="435" y1="627" x2="420" y2="627" stroke="#785b43" stroke-width="1.6" marker-end="url(#arrowmuted)"/><text x="427" y="618" font-size="10.5" font-weight="normal" fill="#785b43" text-anchor="middle">:5432</text><rect x="140" y="832" width="880" height="90" rx="8" fill="#f3ede4" stroke="#ded5ca" stroke-width="1"/><text x="160" y="860" font-size="13" font-weight="bold" fill="#35271f" text-anchor="start">Ports im Überblick</text><text x="160" y="884" font-size="11.5" font-weight="normal" fill="#4b4641" text-anchor="start">3000 Backend · 5432 / 5433 PostgreSQL · 1025 Maildev SMTP · 1080 Maildev UI · 5050 pgAdmin</text><text x="160" y="906" font-size="10.5" font-weight="normal" fill="#746d66" text-anchor="start">Datenfluss: Browser → Backend :3000 → PostgreSQL :5432  /  Mailversand → Maildev :1025 (Ansicht: localhost:1080)</text></svg>